<?xml version="1.0" encoding="UTF-8"?>
<svg id="LINE_LOGO" data-name="LINE LOGO" xmlns="http://www.w3.org/2000/svg" viewBox="0 0 213.38 203.31">
  <defs>
    <style>
      .cls-1 {
        fill: #463d2e;
      }
    </style>
  </defs>
  <path class="cls-1" d="M213.38,86.58C213.38,38.84,165.52,0,106.69,0S0,38.84,0,86.58c0,42.8,37.96,78.64,89.23,85.42,3.47,.75,8.2,2.29,9.4,5.26,1.08,2.7,.7,6.92,.35,9.65,0,0-1.25,7.53-1.52,9.13-.47,2.7-2.14,10.55,9.24,5.75,11.39-4.8,61.44-36.18,83.82-61.94h0c15.46-16.96,22.87-34.16,22.87-53.27Zm-144.33,25.53c0,1.13-.91,2.04-2.04,2.04h-29.97c-1.13,0-2.04-.91-2.04-2.04v-.03h0v-46.53c0-1.13,.91-2.04,2.04-2.04h7.57c1.12,0,2.04,.92,2.04,2.04v36.96h20.37c1.12,0,2.04,.92,2.04,2.04v7.57Zm18.04,0c0,1.12-.91,2.04-2.04,2.04h-7.57c-1.12,0-2.04-.91-2.04-2.04v-46.56c0-1.12,.91-2.04,2.04-2.04h7.57c1.13,0,2.04,.91,2.04,2.04v46.56Zm51.51,0c0,1.12-.91,2.04-2.04,2.04h-7.52c-.18,0-.36-.03-.53-.07,0,0-.02,0-.03,0-.05-.01-.09-.03-.14-.04-.02,0-.04-.02-.06-.02-.03-.01-.07-.03-.1-.04-.03-.02-.07-.03-.1-.05-.02-.01-.04-.02-.06-.03-.04-.02-.09-.05-.13-.08,0,0-.02-.01-.02-.02-.2-.14-.38-.31-.53-.51l-21.33-28.81v27.65c0,1.12-.91,2.04-2.04,2.04h-7.57c-1.12,0-2.04-.91-2.04-2.04v-46.56c0-1.12,.91-2.04,2.04-2.04h7.52s.05,0,.07,0c.04,0,.07,0,.11,0,.04,0,.07,0,.11,.01,.03,0,.06,0,.09,.01,.04,0,.08,.02,.12,.03,.02,0,.05,.01,.07,.02,.04,.01,.08,.03,.12,.04,.02,0,.04,.02,.07,.02,.04,.02,.08,.03,.12,.05,.02,.01,.04,.02,.06,.03,.04,.02,.08,.04,.11,.06,.02,.01,.04,.02,.06,.04,.04,.02,.07,.05,.11,.07,.02,.01,.04,.03,.06,.04,.04,.03,.07,.06,.11,.09,.01,.01,.03,.02,.04,.03,.04,.04,.08,.08,.12,.13,0,0,0,0,.01,.01,.06,.07,.11,.14,.16,.21l21.3,28.77v-27.65c0-1.12,.91-2.04,2.04-2.04h7.57c1.12,0,2.04,.91,2.04,2.04v46.56Zm41.32-39c0,1.13-.91,2.04-2.04,2.04h-20.37v7.86h20.37c1.12,0,2.04,.92,2.04,2.04v7.57c0,1.13-.91,2.04-2.04,2.04h-20.37v7.86h20.37c1.12,0,2.04,.92,2.04,2.04v7.57c0,1.13-.91,2.04-2.04,2.04h-29.97c-1.13,0-2.04-.91-2.04-2.04v-.03h0v-46.48h0v-.05c0-1.13,.91-2.04,2.04-2.04h29.97c1.12,0,2.04,.92,2.04,2.04v7.57Z"/>
</svg>
