<?xml version="1.0" encoding="UTF-8"?>
<svg id="_レイヤー_1" data-name="レイヤー 1" xmlns="http://www.w3.org/2000/svg" xmlns:xlink="http://www.w3.org/1999/xlink" viewBox="0 0 29 53.17">
  <defs>
    <style>
      .cls-1 {
        fill: #463d2e;
      }

      .cls-2 {
        fill: #463d2e;
      }
    </style>
    <clipPath id="clippath">
      <rect id="SVGID" class="cls-1" y=".07" width="29" height="53.1"/>
    </clipPath>
  </defs>
  <g class="cls-2">
    <path d="M27.63,.01h-6.89c-7.74-.01-12.74,5.12-12.74,13.06v6.03H1.08c-.6,0-1.08,.48-1.08,1.08v8.73c0,.6,.49,1.08,1.08,1.08h6.92v22.03c0,.6,.49,1.08,1.08,1.08h9.03c.6,0,1.08-.49,1.08-1.08V29.99h8.09c.6,0,1.08-.49,1.08-1.08v-8.73c0-.29-.11-.56-.31-.77-.2-.2-.48-.32-.77-.32h-8.1v-5.11c0-2.45,.59-3.7,3.78-3.7h4.64c.6,0,1.08-.49,1.08-1.08V1.1C28.71,.5,28.22,.01,27.63,.01h0ZM27.63,.01"/>
  </g>
</svg>
